<svg width="161" height="160" viewBox="0 0 161 160" fill="none" xmlns="http://www.w3.org/2000/svg">
<path d="M36.6218 31.3333C46.8675 31.3333 55.3257 41.8673 56.5847 55.4925C56.9553 56.7467 56.9866 58.2373 56.7322 59.9183C56.6641 62.4449 56.2969 63.7057 55.6707 64.0892C53.618 70.1267 49.2001 77.6419 44.0193 85.2083L57.6238 102.019V121.333C57.6238 121.333 46.9413 109.547 36.4451 95.6693C26.0652 109.342 15.6238 120.863 15.6238 120.863V101.548L28.8787 85.1683C23.6645 77.5043 19.2701 69.9259 17.364 63.9173C16.9118 63.4407 16.6277 62.3729 16.5339 60.515C16.2735 58.876 16.2811 57.4145 16.6042 56.1732C17.6398 42.2201 26.2065 31.3339 36.6218 31.3333ZM36.6218 51.0208C32.4122 51.0212 28.5047 54.3626 25.2742 57.6829L33.9529 72.7679L36.4324 75.8323L39.2947 72.2972L47.8005 57.5101C44.6031 54.2478 40.7583 51.0208 36.6218 51.0208Z" fill="url(#paint0_linear_5_212)"/>
<path d="M73.0408 63V52.8182H76.4811C77.2799 52.8182 77.9328 52.9624 78.4399 53.2507C78.9504 53.5357 79.3282 53.9219 79.5735 54.4091C79.8187 54.8963 79.9414 55.4399 79.9414 56.0398C79.9414 56.6397 79.8187 57.1849 79.5735 57.6754C79.3315 58.166 78.957 58.5571 78.4499 58.8487C77.9428 59.1371 77.2932 59.2812 76.501 59.2812H74.0351V58.1875H76.4613C77.0081 58.1875 77.4473 58.093 77.7787 57.9041C78.1102 57.7152 78.3505 57.46 78.4996 57.1385C78.6521 56.8137 78.7283 56.4474 78.7283 56.0398C78.7283 55.6321 78.6521 55.2675 78.4996 54.946C78.3505 54.6245 78.1085 54.3726 77.7738 54.1903C77.439 54.0047 76.9949 53.9119 76.4414 53.9119H74.2738V63H73.0408ZM81.7684 63V55.3636H82.9019V56.517H82.9815C83.1207 56.1392 83.3726 55.8326 83.7372 55.5973C84.1018 55.362 84.5127 55.2443 84.9701 55.2443C85.0563 55.2443 85.164 55.246 85.2933 55.2493C85.4225 55.2526 85.5203 55.2576 85.5866 55.2642V56.4574C85.5468 56.4474 85.4557 56.4325 85.3132 56.4126C85.174 56.3894 85.0265 56.3778 84.8707 56.3778C84.4995 56.3778 84.168 56.4557 83.8764 56.6115C83.588 56.764 83.3593 56.9761 83.1903 57.2479C83.0246 57.5163 82.9417 57.8229 82.9417 58.1676V63H81.7684ZM89.8473 63.1591C89.1579 63.1591 88.553 62.995 88.0326 62.6669C87.5156 62.3388 87.1112 61.8797 86.8196 61.2898C86.5312 60.6998 86.387 60.0104 86.387 59.2216C86.387 58.4261 86.5312 57.7318 86.8196 57.1385C87.1112 56.5452 87.5156 56.0845 88.0326 55.7564C88.553 55.4283 89.1579 55.2642 89.8473 55.2642C90.5367 55.2642 91.1399 55.4283 91.6569 55.7564C92.1773 56.0845 92.5816 56.5452 92.87 57.1385C93.1617 57.7318 93.3075 58.4261 93.3075 59.2216C93.3075 60.0104 93.1617 60.6998 92.87 61.2898C92.5816 61.8797 92.1773 62.3388 91.6569 62.6669C91.1399 62.995 90.5367 63.1591 89.8473 63.1591ZM89.8473 62.1051C90.3709 62.1051 90.8018 61.9709 91.1399 61.7024C91.4779 61.4339 91.7282 61.081 91.8906 60.6435C92.053 60.206 92.1342 59.732 92.1342 59.2216C92.1342 58.7112 92.053 58.2356 91.8906 57.7947C91.7282 57.3539 91.4779 56.9976 91.1399 56.7259C90.8018 56.4541 90.3709 56.3182 89.8473 56.3182C89.3236 56.3182 88.8927 56.4541 88.5546 56.7259C88.2166 56.9976 87.9663 57.3539 87.8039 57.7947C87.6415 58.2356 87.5603 58.7112 87.5603 59.2216C87.5603 59.732 87.6415 60.206 87.8039 60.6435C87.9663 61.081 88.2166 61.4339 88.5546 61.7024C88.8927 61.9709 89.3236 62.1051 89.8473 62.1051ZM100.508 57.0739L99.4536 57.3722C99.3873 57.1965 99.2896 57.0258 99.1603 56.8601C99.0343 56.6911 98.862 56.5518 98.6432 56.4425C98.4245 56.3331 98.1444 56.2784 97.803 56.2784C97.3357 56.2784 96.9463 56.3861 96.6347 56.6016C96.3265 56.8137 96.1724 57.0838 96.1724 57.4119C96.1724 57.7036 96.2784 57.9339 96.4905 58.103C96.7027 58.272 97.0341 58.4129 97.4849 58.5256L98.6184 58.804C99.3012 58.9697 99.8099 59.2232 100.145 59.5646C100.479 59.9027 100.647 60.3385 100.647 60.8722C100.647 61.3097 100.521 61.7008 100.269 62.0455C100.02 62.3902 99.6724 62.6619 99.2249 62.8608C98.7775 63.0597 98.2571 63.1591 97.6638 63.1591C96.885 63.1591 96.2403 62.9901 95.7299 62.652C95.2195 62.3139 94.8963 61.8201 94.7604 61.1705L95.8741 60.892C95.9801 61.303 96.1807 61.6113 96.4756 61.8168C96.7739 62.0223 97.1634 62.125 97.644 62.125C98.1908 62.125 98.625 62.009 98.9465 61.777C99.2713 61.5417 99.4337 61.2599 99.4337 60.9318C99.4337 60.6667 99.3409 60.4446 99.1553 60.2656C98.9697 60.0833 98.6847 59.9474 98.3002 59.858L97.0275 59.5597C96.3281 59.3939 95.8144 59.1371 95.4863 58.7891C95.1615 58.4377 94.9991 57.9986 94.9991 57.4716C94.9991 57.0407 95.12 56.6596 95.362 56.3281C95.6073 55.9967 95.9404 55.7365 96.3613 55.5476C96.7855 55.3587 97.2661 55.2642 97.803 55.2642C98.5587 55.2642 99.152 55.4299 99.5829 55.7614C100.017 56.0928 100.325 56.5303 100.508 57.0739ZM105.734 55.3636V56.358H101.777V55.3636H105.734ZM102.93 53.5341H104.103V60.8125C104.103 61.1439 104.151 61.3925 104.247 61.5582C104.347 61.7206 104.473 61.83 104.625 61.8864C104.781 61.9394 104.945 61.9659 105.118 61.9659C105.247 61.9659 105.353 61.9593 105.436 61.946C105.519 61.9295 105.585 61.9162 105.635 61.9062L105.873 62.9602C105.794 62.9901 105.683 63.0199 105.54 63.0497C105.398 63.0829 105.217 63.0994 104.998 63.0994C104.667 63.0994 104.342 63.0282 104.024 62.8857C103.709 62.7431 103.447 62.526 103.238 62.2344C103.033 61.9427 102.93 61.5748 102.93 61.1307V53.5341ZM109.746 63.179C109.262 63.179 108.823 63.0878 108.429 62.9055C108.034 62.7199 107.721 62.4531 107.489 62.1051C107.257 61.7538 107.141 61.3295 107.141 60.8324C107.141 60.3949 107.227 60.0402 107.399 59.7685C107.572 59.4934 107.802 59.2779 108.091 59.1222C108.379 58.9664 108.697 58.8504 109.045 58.7741C109.396 58.6946 109.749 58.6316 110.104 58.5852C110.568 58.5256 110.944 58.4808 111.233 58.451C111.524 58.4179 111.736 58.3632 111.869 58.2869C112.005 58.2107 112.073 58.0781 112.073 57.8892V57.8494C112.073 57.3589 111.939 56.9777 111.67 56.706C111.405 56.4342 111.002 56.2983 110.462 56.2983C109.902 56.2983 109.463 56.4209 109.144 56.6662C108.826 56.9115 108.603 57.1733 108.473 57.4517L107.36 57.054C107.559 56.59 107.824 56.2287 108.155 55.9702C108.49 55.7083 108.854 55.526 109.249 55.4233C109.647 55.3172 110.038 55.2642 110.422 55.2642C110.667 55.2642 110.949 55.294 111.267 55.3537C111.589 55.41 111.899 55.5277 112.197 55.7067C112.499 55.8857 112.749 56.1558 112.948 56.517C113.147 56.8783 113.246 57.3622 113.246 57.9688V63H112.073V61.9659H112.013C111.934 62.1316 111.801 62.3089 111.615 62.4979C111.43 62.6868 111.183 62.8475 110.875 62.9801C110.566 63.1127 110.19 63.179 109.746 63.179ZM109.925 62.125C110.389 62.125 110.78 62.0339 111.098 61.8516C111.42 61.6693 111.662 61.4339 111.824 61.1456C111.99 60.8572 112.073 60.554 112.073 60.2358V59.1619C112.023 59.2216 111.914 59.2763 111.745 59.326C111.579 59.3724 111.387 59.4138 111.168 59.4503C110.952 59.4834 110.742 59.5133 110.537 59.5398C110.334 59.563 110.17 59.5829 110.044 59.5994C109.739 59.6392 109.454 59.7038 109.189 59.7933C108.927 59.8795 108.715 60.0104 108.553 60.1861C108.394 60.3584 108.314 60.5937 108.314 60.892C108.314 61.2997 108.465 61.608 108.767 61.8168C109.072 62.0223 109.458 62.125 109.925 62.125ZM118.709 55.3636V56.358H114.751V55.3636H118.709ZM115.905 53.5341H117.078V60.8125C117.078 61.1439 117.126 61.3925 117.222 61.5582C117.322 61.7206 117.447 61.83 117.6 61.8864C117.756 61.9394 117.92 61.9659 118.092 61.9659C118.221 61.9659 118.327 61.9593 118.41 61.946C118.493 61.9295 118.559 61.9162 118.609 61.9062L118.848 62.9602C118.768 62.9901 118.657 63.0199 118.515 63.0497C118.372 63.0829 118.192 63.0994 117.973 63.0994C117.641 63.0994 117.317 63.0282 116.998 62.8857C116.683 62.7431 116.422 62.526 116.213 62.2344C116.007 61.9427 115.905 61.5748 115.905 61.1307V53.5341ZM123.593 63.1591C122.857 63.1591 122.223 62.9967 121.689 62.6719C121.159 62.3438 120.749 61.8864 120.461 61.2997C120.176 60.7098 120.034 60.0237 120.034 59.2415C120.034 58.4593 120.176 57.7699 120.461 57.1733C120.749 56.5734 121.15 56.1061 121.664 55.7713C122.181 55.4332 122.784 55.2642 123.474 55.2642C123.872 55.2642 124.264 55.3305 124.652 55.4631C125.04 55.5956 125.393 55.8111 125.711 56.1094C126.029 56.4044 126.283 56.7955 126.472 57.2827C126.661 57.7699 126.755 58.3698 126.755 59.0824V59.5795H120.869V58.5653H125.562C125.562 58.1345 125.476 57.75 125.303 57.4119C125.134 57.0739 124.892 56.8071 124.578 56.6115C124.266 56.416 123.898 56.3182 123.474 56.3182C123.007 56.3182 122.602 56.4342 122.261 56.6662C121.923 56.8949 121.663 57.1932 121.48 57.5611C121.298 57.929 121.207 58.3234 121.207 58.7443V59.4205C121.207 59.9972 121.306 60.486 121.505 60.8871C121.707 61.2848 121.987 61.5881 122.345 61.7969C122.703 62.0024 123.119 62.1051 123.593 62.1051C123.901 62.1051 124.18 62.062 124.428 61.9759C124.68 61.8864 124.897 61.7538 125.08 61.5781C125.262 61.3991 125.403 61.1771 125.502 60.9119L126.636 61.2301C126.516 61.6146 126.316 61.9527 126.034 62.2443C125.753 62.5327 125.404 62.758 124.99 62.9205C124.576 63.0795 124.11 63.1591 123.593 63.1591Z" fill="black"/>
<path d="M67.5094 102.09H65.2026L68.7175 91.9084H71.4917L75.0016 102.09H72.6948L70.1444 94.2351H70.0648L67.5094 102.09ZM67.3653 98.0881H72.8141V99.7685H67.3653V98.0881ZM76.7367 102.09L74.6586 94.4538H76.8014L77.9846 99.5845H78.0542L79.2871 94.4538H81.3901L82.643 99.5547H82.7076L83.871 94.4538H86.0087L83.9356 102.09H81.6934L80.3809 97.2877H80.2864L78.9739 102.09H76.7367ZM89.3161 102.234C88.8289 102.234 88.3947 102.15 88.0135 101.981C87.6324 101.808 87.3308 101.555 87.1087 101.22C86.89 100.882 86.7806 100.461 86.7806 99.9574C86.7806 99.5332 86.8585 99.1769 87.0142 98.8885C87.17 98.6002 87.3821 98.3681 87.6506 98.1925C87.9191 98.0168 88.224 97.8842 88.5654 97.7948C88.9101 97.7053 89.2713 97.6423 89.6492 97.6058C90.0933 97.5594 90.4513 97.5163 90.723 97.4766C90.9948 97.4335 91.192 97.3705 91.3147 97.2877C91.4373 97.2048 91.4986 97.0822 91.4986 96.9198V96.8899C91.4986 96.5751 91.3992 96.3315 91.2003 96.1591C91.0048 95.9868 90.7264 95.9006 90.3651 95.9006C89.9839 95.9006 89.6807 95.9851 89.4553 96.1541C89.2299 96.3199 89.0808 96.5287 89.0079 96.7806L87.049 96.6215C87.1485 96.1574 87.344 95.7564 87.6357 95.4183C87.9274 95.077 88.3035 94.8151 88.7642 94.6328C89.2283 94.4472 89.7652 94.3544 90.375 94.3544C90.7993 94.3544 91.2053 94.4041 91.5931 94.5036C91.9842 94.603 92.3305 94.7571 92.6321 94.9659C92.9371 95.1747 93.1774 95.4432 93.353 95.7713C93.5287 96.0961 93.6165 96.4856 93.6165 96.9396V102.09H91.608V101.031H91.5483C91.4257 101.27 91.2616 101.48 91.0561 101.663C90.8507 101.842 90.6037 101.982 90.3154 102.085C90.027 102.185 89.6939 102.234 89.3161 102.234ZM89.9226 100.773C90.2342 100.773 90.5093 100.711 90.7479 100.589C90.9865 100.463 91.1738 100.294 91.3097 100.082C91.4456 99.8696 91.5135 99.6293 91.5135 99.3608V98.5504C91.4472 98.5935 91.3561 98.6333 91.2401 98.6698C91.1274 98.7029 90.9998 98.7344 90.8573 98.7642C90.7148 98.7907 90.5722 98.8156 90.4297 98.8388C90.2872 98.8587 90.1579 98.8769 90.0419 98.8935C89.7934 98.9299 89.5763 98.9879 89.3907 99.0675C89.2051 99.147 89.0609 99.2547 88.9581 99.3906C88.8554 99.5232 88.804 99.6889 88.804 99.8878C88.804 100.176 88.9084 100.397 89.1172 100.549C89.3293 100.698 89.5978 100.773 89.9226 100.773ZM95.2596 102.09V94.4538H97.3129V95.7862H97.3924C97.5316 95.3123 97.7653 94.9543 98.0934 94.7124C98.4216 94.4671 98.7994 94.3445 99.227 94.3445C99.333 94.3445 99.4474 94.3511 99.57 94.3644C99.6926 94.3776 99.8003 94.3958 99.8931 94.419V96.2983C99.7937 96.2685 99.6562 96.242 99.4805 96.2188C99.3048 96.1956 99.1441 96.184 98.9983 96.184C98.6867 96.184 98.4083 96.2519 98.163 96.3878C97.9211 96.5204 97.7288 96.706 97.5863 96.9446C97.4471 97.1832 97.3775 97.4583 97.3775 97.7699V102.09H95.2596ZM104.113 102.239C103.327 102.239 102.651 102.08 102.084 101.762C101.521 101.441 101.087 100.987 100.782 100.4C100.477 99.8099 100.324 99.1122 100.324 98.3068C100.324 97.5213 100.477 96.8319 100.782 96.2386C101.087 95.6454 101.516 95.183 102.069 94.8516C102.626 94.5201 103.279 94.3544 104.028 94.3544C104.532 94.3544 105.001 94.4356 105.435 94.598C105.873 94.7571 106.254 94.9974 106.579 95.3189C106.907 95.6404 107.162 96.0448 107.344 96.532C107.527 97.0159 107.618 97.5826 107.618 98.2323V98.8139H101.17V97.5014H105.624C105.624 97.1965 105.558 96.9264 105.425 96.6911C105.293 96.4557 105.109 96.2718 104.873 96.1392C104.641 96.0033 104.371 95.9354 104.063 95.9354C103.742 95.9354 103.457 96.01 103.208 96.1591C102.963 96.3049 102.77 96.5021 102.631 96.7507C102.492 96.996 102.421 97.2694 102.417 97.571V98.8189C102.417 99.1967 102.487 99.5232 102.626 99.7983C102.769 100.073 102.969 100.286 103.228 100.435C103.486 100.584 103.793 100.658 104.148 100.658C104.383 100.658 104.598 100.625 104.794 100.559C104.989 100.493 105.157 100.393 105.296 100.261C105.435 100.128 105.541 99.9657 105.614 99.7734L107.573 99.9027C107.474 100.373 107.27 100.784 106.962 101.136C106.657 101.484 106.262 101.755 105.778 101.951C105.298 102.143 104.743 102.239 104.113 102.239ZM111.118 97.6754V102.09H109V94.4538H111.018V95.8011H111.108C111.277 95.357 111.56 95.0057 111.958 94.7472C112.356 94.4853 112.838 94.3544 113.405 94.3544C113.935 94.3544 114.397 94.4704 114.792 94.7024C115.186 94.9344 115.493 95.2659 115.712 95.6967C115.93 96.1243 116.04 96.6347 116.04 97.228V102.09H113.922V97.6058C113.925 97.1385 113.806 96.7739 113.564 96.5121C113.322 96.2469 112.989 96.1144 112.564 96.1144C112.279 96.1144 112.028 96.1757 111.809 96.2983C111.593 96.4209 111.424 96.5999 111.302 96.8352C111.182 97.0672 111.121 97.3473 111.118 97.6754ZM121.189 102.239C120.403 102.239 119.727 102.08 119.161 101.762C118.597 101.441 118.163 100.987 117.858 100.4C117.553 99.8099 117.401 99.1122 117.401 98.3068C117.401 97.5213 117.553 96.8319 117.858 96.2386C118.163 95.6454 118.592 95.183 119.146 94.8516C119.702 94.5201 120.355 94.3544 121.104 94.3544C121.608 94.3544 122.077 94.4356 122.511 94.598C122.949 94.7571 123.33 94.9974 123.655 95.3189C123.983 95.6404 124.238 96.0448 124.42 96.532C124.603 97.0159 124.694 97.5826 124.694 98.2323V98.8139H118.246V97.5014H122.7C122.7 97.1965 122.634 96.9264 122.501 96.6911C122.369 96.4557 122.185 96.2718 121.95 96.1392C121.718 96.0033 121.447 95.9354 121.139 95.9354C120.818 95.9354 120.533 96.01 120.284 96.1591C120.039 96.3049 119.847 96.5021 119.707 96.7507C119.568 96.996 119.497 97.2694 119.494 97.571V98.8189C119.494 99.1967 119.563 99.5232 119.702 99.7983C119.845 100.073 120.045 100.286 120.304 100.435C120.563 100.584 120.869 100.658 121.224 100.658C121.459 100.658 121.675 100.625 121.87 100.559C122.066 100.493 122.233 100.393 122.372 100.261C122.511 100.128 122.617 99.9657 122.69 99.7734L124.649 99.9027C124.55 100.373 124.346 100.784 124.038 101.136C123.733 101.484 123.338 101.755 122.854 101.951C122.374 102.143 121.819 102.239 121.189 102.239ZM132.43 96.6314L130.491 96.7507C130.458 96.585 130.386 96.4359 130.277 96.3033C130.168 96.1674 130.023 96.0597 129.845 95.9801C129.669 95.8973 129.458 95.8558 129.213 95.8558C128.885 95.8558 128.608 95.9254 128.383 96.0646C128.157 96.2005 128.045 96.3828 128.045 96.6115C128.045 96.7938 128.118 96.9479 128.264 97.0739C128.409 97.1998 128.66 97.3009 129.014 97.3771L130.396 97.6556C131.139 97.808 131.692 98.0533 132.057 98.3913C132.421 98.7294 132.604 99.1735 132.604 99.7237C132.604 100.224 132.456 100.663 132.161 101.041C131.87 101.419 131.469 101.714 130.958 101.926C130.451 102.135 129.866 102.239 129.203 102.239C128.192 102.239 127.387 102.029 126.787 101.608C126.19 101.184 125.841 100.607 125.738 99.8779L127.821 99.7685C127.884 100.077 128.037 100.312 128.278 100.474C128.52 100.634 128.83 100.713 129.208 100.713C129.579 100.713 129.878 100.642 130.103 100.499C130.332 100.353 130.448 100.166 130.451 99.9375C130.448 99.7453 130.367 99.5878 130.207 99.4652C130.048 99.3393 129.803 99.2431 129.472 99.1769L128.149 98.9134C127.403 98.7642 126.848 98.5057 126.484 98.1378C126.122 97.7699 125.942 97.3009 125.942 96.7308C125.942 96.2403 126.074 95.8177 126.34 95.4631C126.608 95.1084 126.984 94.835 127.468 94.6428C127.955 94.4505 128.525 94.3544 129.178 94.3544C130.143 94.3544 130.902 94.5582 131.455 94.9659C132.012 95.3736 132.337 95.9288 132.43 96.6314ZM140.291 96.6314L138.352 96.7507C138.319 96.585 138.248 96.4359 138.138 96.3033C138.029 96.1674 137.885 96.0597 137.706 95.9801C137.53 95.8973 137.32 95.8558 137.074 95.8558C136.746 95.8558 136.47 95.9254 136.244 96.0646C136.019 96.2005 135.906 96.3828 135.906 96.6115C135.906 96.7938 135.979 96.9479 136.125 97.0739C136.271 97.1998 136.521 97.3009 136.876 97.3771L138.258 97.6556C139 97.808 139.554 98.0533 139.918 98.3913C140.283 98.7294 140.465 99.1735 140.465 99.7237C140.465 100.224 140.318 100.663 140.023 101.041C139.731 101.419 139.33 101.714 138.819 101.926C138.312 102.135 137.727 102.239 137.064 102.239C136.054 102.239 135.248 102.029 134.648 101.608C134.052 101.184 133.702 100.607 133.599 99.8779L135.682 99.7685C135.745 100.077 135.898 100.312 136.14 100.474C136.382 100.634 136.692 100.713 137.069 100.713C137.441 100.713 137.739 100.642 137.964 100.499C138.193 100.353 138.309 100.166 138.312 99.9375C138.309 99.7453 138.228 99.5878 138.069 99.4652C137.91 99.3393 137.664 99.2431 137.333 99.1769L136.011 98.9134C135.265 98.7642 134.71 98.5057 134.345 98.1378C133.984 97.7699 133.803 97.3009 133.803 96.7308C133.803 96.2403 133.936 95.8177 134.201 95.4631C134.469 95.1084 134.846 94.835 135.329 94.6428C135.817 94.4505 136.387 94.3544 137.04 94.3544C138.004 94.3544 138.763 94.5582 139.317 94.9659C139.873 95.3736 140.198 95.9288 140.291 96.6314Z" fill="black"/>
<path d="M86.0451 76.5288H84.1857C84.1327 76.2238 84.0349 75.9537 83.8924 75.7184C83.7499 75.4798 83.5726 75.2776 83.3604 75.1119C83.1483 74.9461 82.9064 74.8218 82.6346 74.739C82.3661 74.6528 82.0761 74.6097 81.7646 74.6097C81.2111 74.6097 80.7205 74.7489 80.293 75.0273C79.8654 75.3024 79.5307 75.7068 79.2887 76.2404C79.0468 76.7707 78.9258 77.4187 78.9258 78.1843C78.9258 78.9632 79.0468 79.6194 79.2887 80.153C79.534 80.6834 79.8687 81.0844 80.293 81.3562C80.7205 81.6246 81.2094 81.7589 81.7596 81.7589C82.0645 81.7589 82.3496 81.7191 82.6147 81.6396C82.8832 81.5567 83.1235 81.4357 83.3356 81.2766C83.551 81.1175 83.7317 80.922 83.8775 80.69C84.0266 80.458 84.1294 80.1928 84.1857 79.8945L86.0451 79.9045C85.9755 80.3884 85.8247 80.8424 85.5927 81.2667C85.364 81.6909 85.064 82.0655 84.6928 82.3903C84.3216 82.7118 83.8874 82.9637 83.3903 83.1459C82.8931 83.3249 82.3413 83.4144 81.7347 83.4144C80.8399 83.4144 80.0411 83.2073 79.3384 82.793C78.6358 82.3787 78.0823 81.7804 77.6779 80.9982C77.2736 80.216 77.0714 79.278 77.0714 78.1843C77.0714 77.0872 77.2752 76.1493 77.6829 75.3704C78.0906 74.5882 78.6457 73.9899 79.3484 73.5756C80.051 73.1613 80.8465 72.9542 81.7347 72.9542C82.3015 72.9542 82.8285 73.0337 83.3157 73.1928C83.8029 73.3519 84.2371 73.5856 84.6183 73.8938C84.9994 74.1987 85.3126 74.5733 85.5579 75.0174C85.8065 75.4582 85.9689 75.962 86.0451 76.5288ZM89.8521 83.4293C89.3682 83.4293 88.9324 83.3432 88.5446 83.1708C88.1601 82.9951 87.8552 82.7366 87.6298 82.3952C87.4077 82.0539 87.2967 81.6329 87.2967 81.1325C87.2967 80.7016 87.3762 80.3453 87.5353 80.0636C87.6944 79.7818 87.9115 79.5565 88.1866 79.3874C88.4617 79.2184 88.7716 79.0908 89.1163 79.0046C89.4643 78.9151 89.8239 78.8505 90.1951 78.8107C90.6426 78.7643 91.0055 78.7229 91.2839 78.6864C91.5623 78.6467 91.7645 78.587 91.8905 78.5075C92.0197 78.4246 92.0843 78.297 92.0843 78.1246V78.0948C92.0843 77.7203 91.9733 77.4303 91.7512 77.2248C91.5292 77.0193 91.2093 76.9165 90.7917 76.9165C90.3509 76.9165 90.0012 77.0127 89.7427 77.2049C89.4875 77.3971 89.3152 77.6242 89.2257 77.886L87.5453 77.6474C87.6779 77.1834 87.8966 76.7956 88.2015 76.484C88.5065 76.1691 88.8793 75.9338 89.3201 75.778C89.761 75.619 90.2482 75.5394 90.7818 75.5394C91.1497 75.5394 91.5159 75.5825 91.8805 75.6687C92.2451 75.7548 92.5782 75.8974 92.8798 76.0962C93.1814 76.2918 93.4234 76.5586 93.6057 76.8967C93.7913 77.2347 93.8841 77.6573 93.8841 78.1644V83.2752H92.1539V82.2262H92.0943C91.9849 82.4383 91.8308 82.6372 91.6319 82.8228C91.4364 83.0051 91.1895 83.1526 90.8912 83.2653C90.5962 83.3746 90.2498 83.4293 89.8521 83.4293ZM90.3194 82.1069C90.6807 82.1069 90.9939 82.0356 91.2591 81.8931C91.5242 81.7473 91.728 81.555 91.8706 81.3164C92.0164 81.0778 92.0893 80.8176 92.0893 80.5359V79.636C92.033 79.6824 91.9369 79.7255 91.801 79.7653C91.6684 79.805 91.5192 79.8398 91.3535 79.8697C91.1878 79.8995 91.0237 79.926 90.8613 79.9492C90.6989 79.9724 90.5581 79.9923 90.4387 80.0089C90.1703 80.0453 89.93 80.105 89.7179 80.1878C89.5057 80.2707 89.3384 80.3867 89.2157 80.5359C89.0931 80.6817 89.0318 80.8706 89.0318 81.1026C89.0318 81.4341 89.1528 81.6843 89.3947 81.8533C89.6367 82.0224 89.9449 82.1069 90.3194 82.1069ZM97.4934 78.8008V83.2752H95.6937V75.6388H97.4139V76.9364H97.5034C97.679 76.5089 97.9591 76.1691 98.3436 75.9173C98.7314 75.6654 99.2103 75.5394 99.7804 75.5394C100.307 75.5394 100.766 75.6521 101.157 75.8775C101.552 76.1029 101.857 76.4293 102.072 76.8569C102.291 77.2844 102.399 77.8031 102.395 78.413V83.2752H100.596V78.6914C100.596 78.181 100.463 77.7816 100.198 77.4932C99.9361 77.2049 99.5732 77.0607 99.1092 77.0607C98.7943 77.0607 98.5143 77.1303 98.269 77.2695C98.0271 77.4054 97.8365 77.6026 97.6973 77.8611C97.5614 78.1197 97.4934 78.4329 97.4934 78.8008ZM107.556 83.4244C106.794 83.4244 106.139 83.257 105.592 82.9222C105.049 82.5875 104.629 82.1251 104.334 81.5352C104.043 80.9419 103.897 80.2591 103.897 79.4869C103.897 78.7113 104.046 78.0269 104.344 77.4336C104.643 76.837 105.064 76.373 105.607 76.0415C106.154 75.7068 106.8 75.5394 107.546 75.5394C108.166 75.5394 108.714 75.6538 109.192 75.8825C109.672 76.1078 110.055 76.4277 110.34 76.842C110.625 77.253 110.787 77.7335 110.827 78.2837H109.107C109.037 77.9158 108.872 77.6093 108.61 77.364C108.351 77.1154 108.005 76.9911 107.571 76.9911C107.203 76.9911 106.88 77.0905 106.601 77.2894C106.323 77.485 106.106 77.7667 105.95 78.1346C105.798 78.5025 105.721 78.9433 105.721 79.457C105.721 79.9774 105.798 80.4248 105.95 80.7994C106.103 81.1706 106.316 81.4573 106.591 81.6594C106.87 81.8583 107.196 81.9577 107.571 81.9577C107.836 81.9577 108.073 81.908 108.282 81.8086C108.494 81.7058 108.671 81.5584 108.814 81.3661C108.956 81.1739 109.054 80.9402 109.107 80.6651H110.827C110.784 81.2054 110.625 81.6843 110.35 82.1019C110.075 82.5162 109.7 82.841 109.226 83.0763C108.752 83.3084 108.196 83.4244 107.556 83.4244ZM115.686 83.4244C114.92 83.4244 114.259 83.2653 113.702 82.9471C113.149 82.6256 112.723 82.1715 112.424 81.5849C112.126 80.9949 111.977 80.3005 111.977 79.5018C111.977 78.7163 112.126 78.0269 112.424 77.4336C112.726 76.837 113.147 76.373 113.687 76.0415C114.227 75.7068 114.862 75.5394 115.591 75.5394C116.062 75.5394 116.506 75.6156 116.924 75.7681C117.345 75.9173 117.716 76.1493 118.037 76.4641C118.362 76.779 118.617 77.18 118.803 77.6673C118.989 78.1512 119.081 78.7279 119.081 79.3974V79.9492H112.822V78.7361H117.356C117.353 78.3914 117.278 78.0849 117.132 77.8164C116.987 77.5446 116.783 77.3308 116.521 77.1751C116.262 77.0193 115.961 76.9414 115.616 76.9414C115.248 76.9414 114.925 77.0309 114.647 77.2099C114.368 77.3855 114.151 77.6175 113.995 77.9059C113.843 78.1909 113.765 78.5041 113.762 78.8455V79.9045C113.762 80.3486 113.843 80.7298 114.005 81.0479C114.168 81.3628 114.395 81.6048 114.686 81.7738C114.978 81.9395 115.319 82.0224 115.711 82.0224C115.972 82.0224 116.209 81.9859 116.422 81.913C116.634 81.8368 116.818 81.7257 116.973 81.5799C117.129 81.4341 117.247 81.2534 117.326 81.038L119.007 81.2269C118.901 81.671 118.699 82.0588 118.4 82.3903C118.105 82.7184 117.727 82.9736 117.267 83.1559C116.806 83.3349 116.279 83.4244 115.686 83.4244ZM120.604 83.2752V75.6388H122.349V76.9116H122.428C122.568 76.4708 122.806 76.131 123.144 75.8924C123.486 75.6504 123.875 75.5295 124.313 75.5295C124.412 75.5295 124.523 75.5344 124.646 75.5444C124.772 75.551 124.876 75.5626 124.959 75.5792V77.2347C124.883 77.2082 124.762 77.185 124.596 77.1651C124.434 77.1419 124.276 77.1303 124.124 77.1303C123.796 77.1303 123.501 77.2016 123.239 77.3441C122.98 77.4833 122.776 77.6772 122.627 77.9258C122.478 78.1744 122.404 78.4611 122.404 78.7859V83.2752H120.604Z" fill="black"/>
<defs>
<linearGradient id="paint0_linear_5_212" x1="16.2226" y1="55.8627" x2="55.3259" y2="123.936" gradientUnits="userSpaceOnUse">
<stop offset="0.947015" stop-color="#7FB6D9"/>
<stop offset="1" stop-color="#B8DBF2"/>
</linearGradient>
</defs>
</svg>
